<?xml version="1.0" encoding="UTF-8" standalone="no"?>
<!-- Created with Inkscape (http://www.inkscape.org/) -->

<svg
   xmlns:dc="http://purl.org/dc/elements/1.1/"
   xmlns:cc="http://creativecommons.org/ns#"
   xmlns:rdf="http://www.w3.org/1999/02/22-rdf-syntax-ns#"
   xmlns:svg="http://www.w3.org/2000/svg"
   xmlns="http://www.w3.org/2000/svg"
   xmlns:sodipodi="http://sodipodi.sourceforge.net/DTD/sodipodi-0.dtd"
   xmlns:inkscape="http://www.inkscape.org/namespaces/inkscape"
   width="100px"
   height="100px"
   viewBox="0 0 100 100"
   version="1.1"
   id="SVGRoot"
   inkscape:version="0.92.3 (2405546, 2018-03-11)"
   sodipodi:docname="drop_blue_small.svg"
   >
  <sodipodi:namedview
     id="base"
     pagecolor="#ffffff"
     bordercolor="#666666"
     borderopacity="1.0"
     inkscape:pageopacity="0.0"
     inkscape:pageshadow="2"
     inkscape:zoom="7.2407734"
     inkscape:cx="66.885596"
     inkscape:cy="43.319618"
     inkscape:document-units="px"
     inkscape:current-layer="layer1"
     showgrid="false"
     inkscape:window-width="1853"
     inkscape:window-height="1025"
     inkscape:window-x="67"
     inkscape:window-y="27"
     inkscape:window-maximized="1" />
  <defs
     id="defs874" />
  <metadata
     id="metadata877">
    <rdf:RDF>
      <cc:Work
         rdf:about="">
        <dc:format>image/svg+xml</dc:format>
        <dc:type
           rdf:resource="http://purl.org/dc/dcmitype/StillImage" />
        <dc:title />
      </cc:Work>
    </rdf:RDF>
  </metadata>
  <g
     id="layer1"
     inkscape:groupmode="layer"
     inkscape:label="Layer 1">
    <g
       transform="matrix(0.37585372,0,0,0.37585372,0.62032479,0.6205)"
       id="g27">
      <g
         id="g25">
        <g
           id="g21">
          <g
             id="XMLID_23_">
            <g
               id="g18">
              <g
                 id="g4">
                <path
                   inkscape:connector-curvature="0"
                   style="fill:#2d213f"
                   d="m 210.747,75.576 c 43.704,42.742 43.704,112.303 -0.032,155.046 -21.179,20.73 -49.343,32.137 -79.301,32.137 -29.958,0 -58.122,-11.407 -79.333,-32.137 -21.179,-20.698 -32.842,-48.253 -32.842,-77.539 0,-29.286 11.663,-56.84 32.842,-77.539 L 125.487,2.331 c 3.14,-3.108 8.715,-3.108 11.823,0 z m -11.726,143.61 c 37.296,-36.43 37.296,-95.77 0,-132.2 0,-0.032 -0.032,-0.032 -0.064,-0.064 l -67.542,-67.35 -67.574,67.35 c -18.103,17.719 -28.036,41.204 -28.036,66.164 0,24.96 9.933,48.446 28.004,66.1 18.039,17.654 42.07,27.395 67.606,27.395 25.536,0 49.535,-9.74 67.606,-27.395 z"
                   id="path2" />
              </g>
              <g
                 id="g8">
                <path
                   inkscape:connector-curvature="0"
                   style="fill:#2d213f"
                   d="m 189.12,88.011 c 1.25,1.089 30.407,27.459 24.031,70.49 -0.609,4.037 -4.133,6.921 -8.202,6.921 -0.384,0 -0.769,-0.032 -1.186,-0.064 -4.518,-0.641 -7.658,-4.774 -6.985,-9.164 5.127,-34.604 -18.52,-55.975 -18.744,-56.2 -3.396,-2.98 -3.653,-8.106 -0.609,-11.407 3.076,-3.331 8.299,-3.588 11.695,-0.576 z"
                   id="path6" />
              </g>
              <g
                 id="g12">
                <path
                   inkscape:connector-curvature="0"
                   style="fill:#2d213f"
                   d="m 203.57,171.667 c 3.845,2.403 4.998,7.401 2.531,11.15 l -4.55,6.985 c -1.57,2.403 -4.229,3.749 -6.985,3.749 -1.506,0 -3.044,-0.417 -4.422,-1.282 -3.845,-2.403 -4.998,-7.401 -2.531,-11.15 l 4.518,-6.985 c 2.468,-3.781 7.594,-4.87 11.439,-2.467 z"
                   id="path10" />
              </g>
              <g
                 id="g16">
                <path
                   inkscape:connector-curvature="0"
                   style="fill:#aae1e9"
                   d="m 199.021,86.983 c 37.296,36.43 37.296,95.77 0,132.2 -18.071,17.655 -42.07,27.395 -67.606,27.395 -25.536,0 -49.567,-9.74 -67.606,-27.395 -18.071,-17.654 -28.004,-41.14 -28.004,-66.1 0,-24.96 9.933,-48.446 28.036,-66.164 l 67.574,-67.35 67.542,67.35 c 0.032,0.035 0.064,0.035 0.064,0.064 z m 14.129,71.515 c 6.376,-43.031 -22.781,-69.4 -24.031,-70.49 -3.396,-3.012 -8.619,-2.756 -11.695,0.577 -3.044,3.3 -2.788,8.427 0.609,11.407 0.224,0.224 23.87,21.596 18.744,56.2 -0.673,4.39 2.467,8.523 6.985,9.164 0.417,0.032 0.801,0.064 1.186,0.064 4.069,-10e-4 7.594,-2.882 8.202,-6.922 z m -7.048,24.319 c 2.467,-3.749 1.314,-8.747 -2.531,-11.15 -3.845,-2.403 -8.971,-1.314 -11.439,2.467 l -4.518,6.985 c -2.467,3.749 -1.314,8.747 2.531,11.15 1.378,0.865 2.916,1.282 4.422,1.282 2.756,0 5.415,-1.346 6.985,-3.749 z"
                   id="path14" />
              </g>
            </g>
          </g>
        </g>
        <path
           inkscape:connector-curvature="0"
           style="fill:#92c1ca"
           d="m 47.602,108.05 c -7.696,13.656 -11.797,29.039 -11.797,45.037 0,24.96 9.933,48.446 28.004,66.1 18.039,17.654 42.07,27.395 67.606,27.395 20,0 39.042,-5.998 55.046,-17.071 C 77.357,235.803 49.209,163.769 47.602,108.05 Z"
           id="path23" />
      </g>
    </g>
  </g>
</svg>
