<?xml version="1.0" encoding="UTF-8" standalone="no"?>
<!-- Created with Inkscape (http://www.inkscape.org/) -->

<svg
   xmlns:dc="http://purl.org/dc/elements/1.1/"
   xmlns:cc="http://creativecommons.org/ns#"
   xmlns:rdf="http://www.w3.org/1999/02/22-rdf-syntax-ns#"
   xmlns:svg="http://www.w3.org/2000/svg"
   xmlns="http://www.w3.org/2000/svg"
   xmlns:sodipodi="http://sodipodi.sourceforge.net/DTD/sodipodi-0.dtd"
   xmlns:inkscape="http://www.inkscape.org/namespaces/inkscape"
   width="100px"
   height="100px"
   viewBox="0 0 100 100"
   version="1.1"
   id="SVGRoot"
   inkscape:version="0.92.3 (2405546, 2018-03-11)"
   sodipodi:docname="x.svg">
  <sodipodi:namedview
     id="base"
     pagecolor="#ffffff"
     bordercolor="#666666"
     borderopacity="1.0"
     inkscape:pageopacity="0.0"
     inkscape:pageshadow="2"
     inkscape:zoom="8"
     inkscape:cx="75.256148"
     inkscape:cy="47.009799"
     inkscape:document-units="px"
     inkscape:current-layer="layer1"
     showgrid="false"
     inkscape:window-width="1853"
     inkscape:window-height="1025"
     inkscape:window-x="67"
     inkscape:window-y="27"
     inkscape:window-maximized="1" />
  <defs
     id="defs817" />
  <metadata
     id="metadata820">
    <rdf:RDF>
      <cc:Work
         rdf:about="">
        <dc:format>image/svg+xml</dc:format>
        <dc:type
           rdf:resource="http://purl.org/dc/dcmitype/StillImage" />
        <dc:title></dc:title>
      </cc:Work>
    </rdf:RDF>
  </metadata>
  <g
     id="layer1"
     inkscape:groupmode="layer"
     inkscape:label="Layer 1">
    <path
       style="stroke-width:0.09909859;fill:#1e201d;fill-opacity:0.61176473"
       inkscape:connector-curvature="0"
       d="m 97.567059,2.4327256 c 3.171531,3.171192 3.171531,7.9278634 0,11.0990374 L 13.531763,97.567059 c -3.171174,3.171531 -7.9278454,3.171531 -11.0990374,0 -3.17124364,-3.171087 -3.17124364,-7.927832 0,-11.09899 L 86.468069,2.4327256 c 3.171158,-3.17124364 8.324473,-3.17124364 11.09899,0 z m -84.035296,0 84.035296,84.0353434 c 3.171531,3.171158 3.171531,7.927903 0,11.09899 -3.171087,3.171531 -7.927832,3.171531 -11.09899,0 L 2.4327256,13.531763 c -3.17124364,-3.171174 -3.17124364,-7.9278454 0,-11.0990374 3.171192,-3.17124364 7.9278634,-3.17124364 11.0990374,0 z"
       id="path2" />
  </g>
</svg>
